<svg xmlns="http://www.w3.org/2000/svg" viewBox="0 0 38 40" width="38" height="40">
	<style>
		tspan { white-space:pre }
		.shp0 { fill: #16a6c1 } 
	</style>
	<path id="Forma 1" class="shp0" d="M0 18.99C0 29.46 8.51 38 19.02 38C29.52 38 38 29.49 38 18.99C38 8.48 29.49 0 19.02 0C8.54 0 0 8.51 0 18.99ZM35.35 18.99C35.35 27.98 28.02 35.32 19.02 35.32C10.02 35.32 2.68 27.98 2.68 18.99C2.68 9.98 10.02 2.65 19.02 2.65C28.02 2.65 35.35 9.98 35.35 18.99ZM9.52 20.78C9.26 21.05 9.13 21.37 9.13 21.73C9.13 22.06 9.26 22.42 9.52 22.68C10.05 23.21 10.9 23.21 11.42 22.68L19.11 14.99L26.81 22.68C27.33 23.21 28.18 23.21 28.7 22.68C29.23 22.16 29.23 21.31 28.7 20.78L20.06 12.14C19.8 11.88 19.47 11.75 19.11 11.75C18.75 11.75 18.43 11.88 18.17 12.14L9.52 20.78Z" />
</svg>