<svg xmlns="http://www.w3.org/2000/svg" viewBox="0 0 16 20" width="16" height="20">
	<style>
		tspan { white-space:pre }
		.shp0 { fill: #717171 } 
	</style>
	<path id="Shape 1" class="shp0" d="M9.97,10.99l-7.64,6.73c-0.21,0.18 -0.33,0.43 -0.33,0.69c0,0.27 0.12,0.51 0.33,0.7l0.67,0.59c0.21,0.19 0.49,0.29 0.79,0.29c0.3,0 0.58,-0.1 0.79,-0.29l9.1,-8.02c0.21,-0.19 0.33,-0.43 0.33,-0.7c0,-0.27 -0.11,-0.51 -0.33,-0.7l-9.09,-8.01c-0.21,-0.18 -0.49,-0.29 -0.79,-0.29c-0.3,0 -0.58,0.1 -0.79,0.29l-0.67,0.59c-0.44,0.38 -0.44,1.01 0,1.39z" />
</svg>