<svg xmlns="http://www.w3.org/2000/svg" viewBox="0 0 38 40" width="38" height="40">
	<style>
		tspan { white-space:pre }
		.shp0 { fill: #16a6c1 } 
	</style>
	<path id="Forma 1" class="shp0" d="M38 19.02C38 8.54 29.49 0 18.98 0C8.48 0 0 8.51 0 19.02C0 29.53 8.51 38 18.98 38C29.46 38 38 29.49 38 19.02ZM2.65 19.02C2.65 10.02 9.98 2.69 18.98 2.69C27.98 2.69 35.32 10.02 35.32 19.02C35.32 28.02 27.98 35.35 18.98 35.35C9.98 35.35 2.65 28.02 2.65 19.02ZM28.48 17.22C28.74 16.96 28.87 16.63 28.87 16.27C28.87 15.94 28.74 15.58 28.48 15.32C27.95 14.8 27.1 14.8 26.58 15.32L18.89 23.01L11.19 15.32C10.67 14.8 9.82 14.8 9.3 15.32C8.77 15.84 8.77 16.69 9.3 17.22L17.94 25.86C18.2 26.12 18.53 26.25 18.89 26.25C19.25 26.25 19.57 26.12 19.83 25.86L28.48 17.22Z" />
</svg>