<svg xmlns="http://www.w3.org/2000/svg" viewBox="0 0 26 26" width="26" height="26">
	<style>
		tspan { white-space:pre }
		.shp0 { fill: #717171 } 
	</style>
	<path id="Forma 1" class="shp0" d="M25.72 12.17L14.54 2.16C14.23 1.88 13.77 1.88 13.46 2.16L2.28 12.17C1.94 12.48 1.9 13.01 2.2 13.36C2.5 13.71 3.02 13.74 3.36 13.44L4.23 12.66L4.23 25.16C4.23 25.62 4.6 26 5.05 26L11.28 26L16.72 26L22.95 26C23.4 26 23.77 25.62 23.77 25.16L23.77 12.66L24.64 13.44C24.79 13.58 24.98 13.64 25.18 13.64C25.41 13.64 25.63 13.55 25.8 13.36C26.09 13.01 26.06 12.48 25.72 12.17ZM12.1 24.32L12.1 17.4L15.9 17.4L15.9 24.32L12.1 24.32L12.1 24.32ZM22.13 11.19L22.13 24.32L17.54 24.32L17.54 16.56C17.54 16.09 17.17 15.72 16.72 15.72L11.28 15.72C10.83 15.72 10.46 16.09 10.46 16.56L10.46 24.32L5.87 24.32L5.87 11.19C5.87 11.19 5.87 11.19 5.87 11.19L14 3.91L22.13 11.19C22.13 11.19 22.13 11.19 22.13 11.19ZM12.16 9.82C12.16 10.28 12.53 10.66 12.98 10.66L15.02 10.66C15.47 10.66 15.84 10.28 15.84 9.82C15.84 9.36 15.47 8.98 15.02 8.98L12.98 8.98C12.53 8.98 12.16 9.36 12.16 9.82Z" />
</svg>